<svg width="94" height="94" viewBox="0 0 94 94" fill="none" xmlns="http://www.w3.org/2000/svg">
<circle cx="47" cy="47" r="47" fill="#C9353C" fill-opacity="0.1"/>
<path fill-rule="evenodd" clip-rule="evenodd" d="M32.6625 19.4443L58.3814 36.0096V36.0103C59.0862 36.4637 59.5586 37.1951 59.7523 38.0083C59.9461 38.8208 59.8606 39.715 59.449 40.4925L58.5536 42.1838C60.2304 42.7022 65.3399 44.4571 66.4423 46.9343C67.6657 49.6812 69.6705 61.4953 69.6762 61.5295L69.6812 61.5589L71.2845 73.4288L69.9503 73.6447L68.347 61.7741C68.2413 61.1502 66.3435 50.076 65.2347 47.5854C64.29 45.4631 58.85 43.8032 57.8495 43.5147L56.6616 45.7607C57.1789 46.4865 57.7115 47.2354 58.2434 47.985C59.5826 49.8713 60.9225 51.7568 62.0705 53.3335L61.0207 54.2648C59.9474 52.7907 58.565 50.8444 57.1827 48.8988C54.4814 45.0963 51.7807 41.2938 51.0981 40.6232C50.9145 40.4422 50.5459 40.3465 50.1135 40.3528C49.712 40.3584 49.2776 40.4632 48.892 40.6797C48.5348 40.8802 48.2277 41.1778 48.0485 41.5837V41.5865C47.8649 42.0036 47.8047 42.5548 47.944 43.2611C48.6589 46.8917 56.0689 60.5012 56.0898 60.5403L56.1772 61.0496C56.174 61.0692 55.0545 67.9525 57.2688 70.5632C59.5795 73.2884 60.6173 73.5616 60.6205 73.5623L60.2773 75C60.2735 74.9986 58.8709 74.6221 56.288 71.5754C55.1735 70.2614 54.7353 68.1788 54.6055 66.1934C53.99 66.1704 53.4448 66.1333 52.9522 66.0746C51.863 65.9468 51.0082 65.7233 50.1894 65.346C49.3802 64.9737 48.602 64.4665 47.8364 63.5164C47.1038 62.6075 46.3914 61.2899 45.6866 59.28C45.5042 58.7603 45.4751 58.2824 45.5619 57.8528C45.6518 57.4015 45.8639 57.0243 46.1558 56.7183C46.2001 56.6722 46.2457 56.6274 46.2945 56.5841L21.4697 40.5952C20.765 40.1411 20.2926 39.4097 20.0988 38.5972C19.9051 37.784 19.9912 36.8898 20.4021 36.1116L28.5998 20.6222C29.0108 19.8446 29.6737 19.3228 30.4108 19.109C31.1479 18.8952 31.9578 18.9902 32.6625 19.4443ZM55.5382 44.1909V44.1902C54.3655 42.5569 53.3384 41.1513 52.6571 40.2892C53.3384 41.152 54.3662 42.5569 55.5382 44.1909ZM57.7324 40.0454L57.992 39.5543L57.7324 40.0454ZM57.5449 37.6269L57.531 37.6171L31.8121 21.0511C31.7406 21.005 31.6665 20.968 31.5911 20.9386C31.6665 20.968 31.7406 21.0057 31.8121 21.0518L57.531 37.6171L57.5449 37.6269ZM30.3582 21.1734C30.3456 21.1838 30.3342 21.195 30.3222 21.2062C30.3342 21.195 30.3456 21.1838 30.3582 21.1734ZM30.2867 21.2411C30.1987 21.3326 30.1208 21.4388 30.0562 21.5604L21.8592 37.0505L30.0562 21.5604C30.1208 21.4395 30.1987 21.3326 30.2867 21.2411ZM38.0854 49.1419L48.039 55.5537L38.0854 49.1419ZM48.0536 55.5628C48.0675 55.5719 48.0821 55.5802 48.0966 55.5886C48.0821 55.5802 48.0675 55.5719 48.0536 55.5628ZM48.7229 55.7451C48.8204 55.7423 48.9179 55.7262 49.0116 55.6997L49.0414 55.6906L49.0123 55.699C48.9179 55.7262 48.8204 55.7423 48.7229 55.7451ZM49.1927 50.0494C49.1377 49.9327 49.0832 49.8161 49.0294 49.7001L49.1927 50.0494ZM48.8685 49.3536C48.8153 49.239 48.7628 49.1245 48.7109 49.0113L48.8685 49.3536ZM48.633 48.8408C48.5817 48.7276 48.5304 48.6159 48.4804 48.5041C48.5304 48.6159 48.5817 48.7276 48.633 48.8408ZM47.977 47.3633C47.9092 47.2054 47.8427 47.0496 47.7788 46.8966C47.8427 47.0496 47.9092 47.2054 47.977 47.3633ZM47.6528 46.5934C47.6116 46.4935 47.5711 46.395 47.5318 46.2979L47.6528 46.5934ZM47.2564 45.5944C47.2222 45.5043 47.1886 45.4156 47.1569 45.3282C47.1886 45.4156 47.2222 45.5043 47.2564 45.5944ZM47.4318 40.0224C47.4546 39.9972 47.4774 39.9728 47.5008 39.949C47.4774 39.9728 47.4546 39.9972 47.4318 40.0224ZM47.5008 39.949C47.7357 39.7087 47.9998 39.511 48.2803 39.3531C48.4943 39.2329 48.7191 39.1365 48.9477 39.0618C48.7191 39.1358 48.4943 39.2329 48.2803 39.3531C47.9998 39.511 47.7357 39.7087 47.5008 39.949ZM48.9477 39.0618C48.9768 39.052 49.0053 39.0429 49.0338 39.0345C49.0053 39.0429 48.9768 39.052 48.9477 39.0618ZM49.4093 38.9416C49.4771 38.9283 49.5448 38.9172 49.6119 38.9074C49.5448 38.9172 49.4771 38.9283 49.4093 38.9416ZM49.6119 38.9074C49.6506 38.9018 49.6892 38.8969 49.7272 38.8927C49.6892 38.8969 49.6506 38.9018 49.6119 38.9074ZM49.7278 38.8927C49.7563 38.8899 49.7848 38.8871 49.8133 38.8843C49.7848 38.8871 49.7563 38.8899 49.7278 38.8927ZM49.8139 38.8843C49.8614 38.8801 49.9089 38.8767 49.9564 38.8739C49.9089 38.8767 49.8614 38.8801 49.8139 38.8843ZM49.9564 38.8739C50.0039 38.8718 50.0508 38.8704 50.0976 38.869C50.1217 38.869 50.1451 38.869 50.1685 38.869H50.0976C50.0508 38.8697 50.0039 38.8718 49.9564 38.8739ZM51.6978 55.1394L51.2513 55.9826C50.9867 56.4835 50.6175 56.8782 50.1913 57.1528C50.5694 58.0624 51.245 59.4763 52.0042 60.0758C52.5906 60.5375 53.7462 60.8086 54.7512 60.963C54.3003 60.1281 53.0712 57.8353 51.6978 55.1394ZM54.6036 66.1697C54.6004 66.1145 54.5973 66.0593 54.5941 66.0034C54.5973 66.0593 54.6004 66.1145 54.6036 66.1697ZM54.5599 64.7061C54.5612 63.8035 54.6112 62.9736 54.6688 62.3127L54.6587 62.4391C53.472 62.2554 52.0188 61.9117 51.2235 61.2857C50.1768 60.4607 49.3194 58.6268 48.8977 57.595C48.4956 57.6285 48.084 57.572 47.6914 57.4183C47.6597 57.4301 47.6293 57.4427 47.5983 57.4553C47.3957 57.5419 47.2165 57.6558 47.0841 57.7948C46.9777 57.9066 46.903 58.033 46.8745 58.1728C46.8441 58.3258 46.8606 58.5158 46.9417 58.7449C47.5812 60.5669 48.2094 61.7398 48.8445 62.5278C49.4473 63.276 50.0641 63.677 50.7061 63.9733C51.4027 64.2932 52.1417 64.4853 53.094 64.5971C53.5347 64.6488 54.0179 64.683 54.5599 64.7061ZM31.3131 29.5259L35.626 32.263C35.8856 32.4279 35.9762 32.7981 35.8267 33.0852L34.1487 36.3037C33.9986 36.5908 33.6637 36.6907 33.4034 36.5252L29.0905 33.788C28.8303 33.6232 28.7397 33.2536 28.8898 32.9665L30.5678 29.748C30.7173 29.4602 31.0529 29.361 31.3131 29.5259ZM36.2909 44.0107C36.4758 43.6558 36.8868 43.5328 37.2084 43.7368L40.6063 45.8927C40.928 46.0967 41.0388 46.5501 40.8539 46.905C40.669 47.2599 40.258 47.3821 39.9363 47.1781L36.5385 45.023C36.2168 44.819 36.106 44.3656 36.2909 44.0107ZM25.7319 36.3987L35.645 42.6875C35.9667 42.8915 36.0781 43.3449 35.8932 43.6998C35.7083 44.0554 35.2974 44.1776 34.9751 43.9737L25.062 37.6848C24.7403 37.4808 24.6295 37.0275 24.8144 36.6726C24.9993 36.317 25.4103 36.1947 25.7319 36.3987Z" fill="#C9353C"/>
</svg>
